<svg width="127" height="41" viewBox="0 0 127 41" fill="none" xmlns="http://www.w3.org/2000/svg">
<g clip-path="url(#clip0_265_55)">
<mask id="mask0_265_55" style="mask-type:luminance" maskUnits="userSpaceOnUse" x="0" y="0" width="127" height="41">
<path d="M126.887 0H0V40.1615H126.887V0Z" fill="white"/>
</mask>
<g mask="url(#mask0_265_55)">
<mask id="mask1_265_55" style="mask-type:luminance" maskUnits="userSpaceOnUse" x="0" y="0" width="127" height="41">
<path d="M126.887 0H0V40.1615H126.887V0Z" fill="white"/>
</mask>
<g mask="url(#mask1_265_55)">
<path fill-rule="evenodd" clip-rule="evenodd" d="M42.7119 17.2262H33.694V9.56009H31.7734V26.901H33.694V18.8154H42.7119V26.901H44.6325V9.56009H42.7119V17.2262ZM48.5755 22.2607C48.5755 22.7947 48.6009 23.3159 48.6518 23.799C48.7154 24.2821 48.8298 24.7271 49.0206 25.1212C49.2114 25.528 49.4785 25.8713 49.8474 26.1637C50.2163 26.4561 50.6869 26.6849 51.2974 26.8375C51.8952 27.0028 52.6456 27.079 53.5487 27.079C54.7443 27.079 55.8381 26.9773 56.8557 26.7739C57.8732 26.5705 58.7506 26.3036 59.5142 25.973C59.5393 25.6043 59.5521 25.2356 59.5649 24.8542C59.5777 24.4728 59.5777 24.1041 59.5777 23.71V13.6411H57.7715V22.8328C57.7715 23.0362 57.7715 23.265 57.7715 23.5066C57.7715 23.7481 57.7588 23.9897 57.7588 24.2313C57.746 24.4728 57.746 24.7016 57.7333 24.9051C57.5298 24.9941 57.2627 25.0831 56.9829 25.1721C56.6903 25.2483 56.3723 25.3119 56.0543 25.3755C55.7237 25.439 55.393 25.4772 55.075 25.5153C54.757 25.5535 54.4517 25.5662 54.1719 25.5662C53.3452 25.5662 52.6837 25.5026 52.1877 25.3501C51.679 25.2102 51.2974 24.9813 51.043 24.689C50.7886 24.3965 50.6232 24.0151 50.5215 23.5575C50.4324 23.0998 50.3943 22.5658 50.3943 21.9428V13.6538H48.5882V22.2607H48.5755ZM63.5077 23.7609C63.5077 24.155 63.5205 24.5364 63.5205 24.9051C63.5333 25.2865 63.5461 25.6552 63.5717 26.0238C64.0676 26.2781 64.5891 26.4942 65.1485 26.6468C65.7084 26.7994 66.2806 26.9138 66.8527 26.99C67.4383 27.0663 67.9976 27.0918 68.5575 27.0918C69.6128 27.0918 70.5161 26.99 71.2664 26.7485C72.0173 26.5197 72.64 26.1383 73.1237 25.617C73.6068 25.0958 73.963 24.3965 74.1918 23.5193C74.4211 22.6421 74.5352 21.5615 74.5352 20.2774C74.5352 19.0188 74.4339 17.9509 74.2302 17.0736C74.0265 16.1964 73.6959 15.4972 73.2506 14.9759C72.8053 14.442 72.2332 14.0606 71.5208 13.8317C70.8089 13.5902 69.969 13.4758 68.9772 13.4758C68.341 13.4758 67.7176 13.5266 67.1077 13.6156C66.4971 13.7046 65.8865 13.8191 65.301 13.9843V8.51758H63.4949V23.7609H63.5077ZM65.3138 15.4845C65.5937 15.3955 65.8993 15.3065 66.255 15.2175C66.5984 15.1412 66.9674 15.0777 67.3364 15.0268C67.7054 14.9759 68.0611 14.9632 68.4045 14.9632C69.3206 14.9632 70.0581 15.0649 70.643 15.2684C71.2286 15.4718 71.661 15.7896 71.9532 16.2219C72.2588 16.6541 72.4619 17.2008 72.5766 17.8746C72.6913 18.5484 72.7419 19.3493 72.7291 20.2647C72.7291 21.1546 72.6656 21.9302 72.5388 22.6039C72.4113 23.265 72.1948 23.8244 71.877 24.2567C71.572 24.7016 71.1395 25.0322 70.5924 25.2483C70.0581 25.4772 69.3712 25.5789 68.5575 25.5789C68.2141 25.5789 67.8451 25.5535 67.4761 25.5153C67.0949 25.4645 66.7258 25.4136 66.3568 25.3119C66.0006 25.2229 65.6572 25.1085 65.3522 24.9814C65.3394 24.7652 65.3266 24.5491 65.3266 24.2949C65.3138 24.0533 65.3138 23.8118 65.3138 23.5701C65.3138 23.3286 65.3138 23.0998 65.3138 22.8964V15.4845Z" fill="white"/>
<path fill-rule="evenodd" clip-rule="evenodd" d="M82.726 12.5216C83.1585 12.5216 83.6037 12.547 84.049 12.5852C84.4943 12.6234 84.9267 12.6742 85.3464 12.7378C85.766 12.8013 86.1729 12.8522 86.5547 12.9158L86.8725 10.1951C86.4529 10.1061 85.982 10.0171 85.4482 9.92811C84.9139 9.85181 84.3412 9.77556 83.7312 9.72469C83.1206 9.67387 82.5228 9.64844 81.8995 9.64844C80.8943 9.64844 80.0043 9.72468 79.2413 9.90268C78.4654 10.068 77.8164 10.3477 77.2821 10.7291C76.7483 11.1104 76.3537 11.619 76.0865 12.2674C75.8066 12.903 75.6797 13.6912 75.6797 14.6448C75.6797 15.4584 75.7943 16.1449 76.0103 16.7043C76.239 17.2637 76.5574 17.7341 76.9899 18.1155C77.4095 18.4969 77.9311 18.8275 78.5416 19.0944C79.1522 19.3614 79.8518 19.6157 80.6277 19.8445C81.0345 19.9589 81.4158 20.0861 81.7592 20.2132C82.1154 20.3404 82.4082 20.4929 82.6753 20.6582C82.9425 20.8361 83.1456 21.0523 83.2859 21.3193C83.4256 21.5862 83.5147 21.9168 83.5147 22.3236C83.5147 22.8957 83.3878 23.3407 83.1585 23.6585C82.9169 23.9764 82.5863 24.1925 82.141 24.3069C81.7086 24.434 81.1742 24.4849 80.5637 24.4722C80.2331 24.4722 79.864 24.4595 79.47 24.434C79.0759 24.4086 78.6685 24.3832 78.2745 24.345C77.8676 24.3069 77.4602 24.2688 77.0789 24.2179C76.6971 24.167 76.3409 24.1289 76.0231 24.078L75.6797 26.8623C76.3921 27.0148 77.1552 27.1547 77.9945 27.2437C78.8338 27.3454 79.7372 27.3963 80.7167 27.3963C82.0904 27.4089 83.2603 27.231 84.2271 26.8877C85.1939 26.5445 85.9185 25.9978 86.4144 25.2223C86.9109 24.4595 87.1653 23.4297 87.1781 22.1583C87.1781 21.3701 87.089 20.6963 86.8981 20.1242C86.72 19.5521 86.4272 19.0563 86.046 18.6495C85.6642 18.2426 85.1683 17.8867 84.5577 17.5942C83.9599 17.3019 83.2475 17.0476 82.4082 16.8188C81.9123 16.6916 81.4542 16.5645 81.0602 16.45C80.6655 16.3229 80.3349 16.1831 80.055 16.0178C79.775 15.8525 79.5719 15.6364 79.4194 15.3567C79.2791 15.0897 79.2028 14.7338 79.2028 14.3015C79.2028 13.9582 79.2791 13.6659 79.4316 13.4497C79.5847 13.2209 79.7878 13.0429 80.0422 12.9158C80.2965 12.7886 80.5765 12.6869 80.8821 12.636C81.187 12.5725 81.5048 12.547 81.8232 12.5216C82.141 12.5216 82.446 12.5216 82.726 12.5216ZM94.9746 22.1456L91.6424 13.9328H88.1193L93.4613 26.3156L91.3753 32.151H94.7587L100.94 13.9201H97.5694L94.9746 22.1456ZM106.435 18.5478C106.435 18.2426 106.435 17.9375 106.447 17.6324C106.46 17.3273 106.486 17.0349 106.511 16.7552C106.676 16.6789 106.867 16.6153 107.096 16.5645C107.325 16.5136 107.567 16.4755 107.808 16.45C108.063 16.4246 108.304 16.4119 108.559 16.4119C109.131 16.4119 109.589 16.4628 109.933 16.5645C110.288 16.6662 110.556 16.8315 110.734 17.0476C110.912 17.2637 111.039 17.5307 111.103 17.874C111.166 18.2045 111.192 18.6113 111.192 19.0817V27.2564H114.499V18.7766C114.499 18.2045 114.473 17.6579 114.41 17.1493C114.346 16.6408 114.206 16.1831 114.015 15.7635C113.824 15.344 113.519 14.988 113.138 14.6956C112.743 14.4032 112.235 14.1617 111.599 13.9964C110.95 13.8311 110.162 13.7548 109.208 13.7548C108.025 13.7548 106.931 13.8565 105.926 14.06C104.921 14.2633 104.031 14.5685 103.242 14.988C103.204 15.4076 103.179 15.8271 103.166 16.2339C103.14 16.6408 103.14 17.073 103.14 17.518V27.2564H106.447L106.435 18.5478ZM126.595 24.4086C126.188 24.4976 125.794 24.5612 125.399 24.6248C125.005 24.6883 124.61 24.7138 124.203 24.7138C123.542 24.7138 122.995 24.6629 122.563 24.5612C122.13 24.4595 121.787 24.2942 121.545 24.078C121.291 23.8619 121.113 23.5823 120.998 23.239C120.884 22.9084 120.807 22.5016 120.782 22.044C120.744 21.5735 120.731 21.0523 120.744 20.4548C120.731 19.6665 120.769 19.0182 120.846 18.4842C120.922 17.963 121.074 17.5434 121.304 17.2383C121.532 16.9331 121.876 16.7043 122.347 16.5772C122.817 16.45 123.428 16.3865 124.191 16.3865C124.598 16.3865 125.005 16.4246 125.399 16.4755C125.806 16.539 126.2 16.6026 126.607 16.6916L126.874 14.2506C126.416 14.0981 125.895 13.9837 125.31 13.8947C124.725 13.8057 124.064 13.7421 123.313 13.7421C122.347 13.7421 121.507 13.8311 120.82 14.0218C120.133 14.2125 119.561 14.4922 119.116 14.8482C118.67 15.2169 118.327 15.6618 118.073 16.2085C117.818 16.7425 117.653 17.3781 117.551 18.0774C117.449 18.7893 117.399 19.5775 117.412 20.4548C117.412 21.1794 117.449 21.8787 117.513 22.5525C117.59 23.2263 117.729 23.8619 117.933 24.4468C118.136 25.0316 118.429 25.5528 118.811 25.9978C119.192 26.4427 119.688 26.786 120.298 27.0403C120.909 27.2946 121.66 27.4217 122.55 27.4217C123.428 27.4217 124.229 27.3708 124.954 27.2691C125.679 27.1801 126.327 27.053 126.9 26.9005L126.595 24.4086Z" fill="white"/>
<path d="M15.4404 21.1548L0.71155 35.8768C-0.242392 36.8303 -0.242392 38.3686 0.71155 39.3221C1.66549 40.2757 3.20452 40.2757 4.15845 39.3221L18.8873 24.6001C19.8412 23.6466 19.8412 22.1083 18.8873 21.1548C17.9333 20.214 16.3816 20.214 15.4404 21.1548Z" fill="white"/>
<path d="M15.4404 0.762001L0.71155 15.4713C-0.242392 16.4248 -0.242392 17.9631 0.71155 18.9166C1.66549 19.8701 3.20451 19.8701 4.15845 18.9166L18.8746 4.20732C19.8285 3.25382 19.8285 1.71551 18.8746 0.762001C17.9333 -0.1915 16.3816 -0.1915 15.4404 0.762001Z" fill="white"/>
<path d="M10.5823 15.9419L5.57093 20.9509C4.61698 21.9044 4.61698 23.4427 5.57093 24.3962C6.52486 25.3497 8.06391 25.3497 9.01784 24.3962L14.0292 19.3872C14.9832 18.4337 14.9832 16.8953 14.0292 15.9419C13.0752 15.0011 11.5363 15.0011 10.5823 15.9419Z" fill="white"/>
</g>
</g>
</g>
<defs>
<clipPath id="clip0_265_55">
<rect width="127" height="41" fill="white"/>
</clipPath>
</defs>
</svg>
